<svg xmlns="http://www.w3.org/2000/svg" width="53.029" height="53.046" viewBox="0 0 53.029 53.046">
  <g id="Icon_ionic-ios-quote" data-name="Icon ionic-ios-quote" transform="translate(0.5 0.5)">
    <path id="Path_71" data-name="Path 71" d="M25.123,6.75H14.554a7.827,7.827,0,0,0-7.8,7.8V35.366a7.827,7.827,0,0,0,7.8,7.8h6.292a1.308,1.308,0,0,1,1.3,1.4,19.832,19.832,0,0,1-5.089,12.048,1.3,1.3,0,0,0,.959,2.179h6.487a1.263,1.263,0,0,0,1.024-.5c1.2-1.561,4.634-6.764,4.634-15.267V11.807a4.928,4.928,0,0,0-5.04-5.057Z" transform="translate(-6.75 -6.75)" fill="none" stroke="#216bb1" stroke-width="1"/>
    <path id="Path_72" data-name="Path 72" d="M37.5,6.75H26.929a7.827,7.827,0,0,0-7.8,7.8V35.366a7.827,7.827,0,0,0,7.8,7.8h6.292a1.308,1.308,0,0,1,1.3,1.4,19.832,19.832,0,0,1-5.089,12.048,1.3,1.3,0,0,0,.959,2.179H36.88a1.263,1.263,0,0,0,1.024-.5c1.2-1.561,4.634-6.764,4.634-15.267V11.807A4.928,4.928,0,0,0,37.5,6.75Z" transform="translate(9.491 -6.75)" fill="none" stroke="#216bb1" stroke-width="1"/>
  </g>
</svg>
